<svg xmlns="http://www.w3.org/2000/svg" width="45" height="45" viewBox="0 0 45 45"><g stroke="#000" stroke-width="1.5"><path fill="#FFF" stroke-linejoin="round" d="M9 39h27v-3H9v3zm3-3v-4h21v4H12zm-1-22V9h4v2h5V9h5v2h5V9h4v5"/><path fill="#FFF" stroke-linecap="round" stroke-linejoin="round" d="M34 14l-3 3H14l-3-3"/><path fill="#FFF" d="M31 17v12.5H14V17"/><path fill="#FFF" stroke-linecap="round" stroke-linejoin="round" d="M31 29.5l1.5 2.5h-20l1.5-2.5"/><path fill="none" stroke-linecap="round" d="M11 14h23"/></g><path fill="none" d="M15.589 27.508V17.494h18.642v10.014H15.589zm5.041-7.096c.701-.057 1.219-.291 1.327-1.01.071-.475-.092-.873-.493-1.183-.072.085-.126.163-.192.229-.1.101-.108.174-.005.296.301.358.175.827-.266.98a1.736 1.736 0 0 1-.562.083c-1.144.009-2.288.005-3.433.005-.379 0-.371 0-.382.372-.005.17.039.235.216.222.204-.013.41-.003.615-.003.011.025.023.048.035.072-.07.053-.146.101-.21.16-.693.642-.852 1.781-.382 2.596.423.725 1.054 1.115 1.885 1.215 1.002.115 2.029-.35 2.505-1.279.406-.797.238-1.913-.415-2.524l-.243-.231zm7.685-.01c.014.025.025.049.039.073-.061.047-.127.087-.183.139-.832.764-.898 2.141-.154 2.988a2.44 2.44 0 0 0 1.621.838c.991.123 2.006-.332 2.49-1.217.445-.823.284-1.959-.407-2.6l-.215-.201c.169-.029.304-.042.433-.075.46-.114.779-.386.875-.863a1.209 1.209 0 0 0-.384-1.185c-.075-.072-.129-.068-.187.016a.866.866 0 0 1-.098.126c-.103.103-.118.179-.009.311.301.356.164.828-.276.977-.178.06-.376.078-.562.08-1.133.007-2.268.003-3.4.003-.407 0-.399 0-.404.407 0 .155.058.193.2.187.204-.011.413-.004.621-.004zm-1.134 4.791h-4.917c-.047 0-.098-.004-.142.008-.032.01-.077.049-.078.074-.006.211-.003.426-.003.639h5.141l-.001-.721z"/><path fill-rule="evenodd" clip-rule="evenodd" d="M20.63 20.412l.244.23c.652.612.821 1.728.415 2.524-.476.93-1.503 1.395-2.505 1.279-.831-.1-1.462-.49-1.885-1.215-.47-.815-.312-1.954.382-2.596.064-.059.14-.107.21-.16-.012-.024-.024-.047-.035-.072-.205 0-.411-.01-.615.003-.177.014-.221-.052-.216-.222.011-.372.003-.372.382-.372 1.145 0 2.289.004 3.433-.005.189 0 .386-.021.562-.083.44-.153.567-.623.266-.98-.103-.122-.094-.196.005-.296.065-.067.12-.144.192-.229.401.31.563.708.493 1.183-.109.72-.627.954-1.328 1.011zm-1.538 3.447c.294.012.591-.09.875-.234.662-.327 1.035-1.083.899-1.78-.201-1.034-1.592-1.947-2.827-1.094-.726.502-.957 1.241-.666 2.032.229.623.94 1.074 1.719 1.076zM28.315 20.402c-.208 0-.417-.007-.621.003-.143.006-.2-.031-.2-.187.005-.407-.003-.407.404-.407 1.133 0 2.268.004 3.4-.003.187-.002.385-.02.562-.08.44-.149.577-.621.276-.977-.109-.132-.094-.208.009-.311.037-.038.067-.083.098-.126.058-.084.111-.087.187-.016.35.325.475.725.384 1.185-.096.478-.415.749-.875.863-.129.033-.264.046-.433.075l.215.201c.691.641.853 1.777.407 2.6-.484.885-1.499 1.34-2.49 1.217a2.44 2.44 0 0 1-1.621-.838c-.744-.847-.678-2.224.154-2.988.056-.052.122-.091.183-.139l-.039-.072zm1.618 3.457c.929.002 1.828-.711 1.836-1.735.005-.876-.896-1.718-1.811-1.713-.979.007-1.838.814-1.843 1.732-.002.961.799 1.714 1.818 1.716zM27.181 25.193v.721H22.04c0-.213-.003-.428.003-.639.001-.025.046-.064.078-.074.044-.012.095-.008.142-.008H27.181z"/><path fill-rule="evenodd" clip-rule="evenodd" fill="#FFF" d="M19.092 23.859c-.778-.002-1.49-.453-1.719-1.076-.291-.792-.06-1.53.666-2.032 1.235-.853 2.625.06 2.827 1.094.136.697-.237 1.453-.899 1.78-.284.145-.581.246-.875.234zm-.022-1.289a.492.492 0 0 0 .495-.499.503.503 0 0 0-.492-.489.484.484 0 0 0-.497.495.475.475 0 0 0 .494.493zM29.933 23.859c-1.019-.002-1.819-.756-1.817-1.715.005-.918.864-1.725 1.843-1.732.915-.005 1.815.837 1.811 1.713-.009 1.023-.909 1.736-1.837 1.734zm-.488-1.781a.473.473 0 0 0 .493.493.499.499 0 0 0 .499-.48.513.513 0 0 0-.497-.506.478.478 0 0 0-.495.493z"/><path fill-rule="evenodd" clip-rule="evenodd" d="M19.07 22.57a.475.475 0 0 1-.494-.493.484.484 0 0 1 .497-.495.504.504 0 0 1 .492.489.491.491 0 0 1-.495.499zM29.445 22.078a.48.48 0 0 1 .495-.494.513.513 0 0 1 .497.506.5.5 0 0 1-.499.48.472.472 0 0 1-.493-.492z"/></svg>